<svg width="41" height="41" viewBox="0 0 41 41" fill="none" xmlns="http://www.w3.org/2000/svg">
<path d="M40.35 20.25C40.35 31.3509 31.3509 40.35 20.25 40.35C9.14908 40.35 0.15 31.3509 0.15 20.25C0.15 9.14908 9.14908 0.15 20.25 0.15C31.3509 0.15 40.35 9.14908 40.35 20.25Z" fill="#FAFBFF" stroke="#E29578" stroke-width="0.3"/>
<path d="M35.85 20.25C35.85 28.8656 28.8656 35.85 20.25 35.85C11.6344 35.85 4.65 28.8656 4.65 20.25C4.65 11.6343 11.6344 4.64999 20.25 4.64999C28.8656 4.64999 35.85 11.6343 35.85 20.25Z" fill="#FAFBFF" stroke="#E29578" stroke-width="0.3"/>
<g clip-path="url(#clip0)">
<path d="M15.6192 12.6774C11.1575 13.2316 4.95001 18.5524 4.95001 23.8732L21.0231 15.5318C21.0231 15.5318 20.5147 12.0693 15.6192 12.6774Z" fill="#F0CABB"/>
<path d="M32.886 32.6143C32.8848 32.1853 32.5787 31.8164 32.1556 31.7453C24.8802 30.5236 14.2663 25.0933 16.5892 19.9932C17.439 18.1272 19.8315 17.8594 19.8315 17.8594V15.8918H13.8179L5.78139 21.6005V30.1913L20.9123 35.4012L32.8937 35.3989L32.886 32.6143Z" fill="#F0CABB"/>
<path d="M28.128 31.8622C22.2376 29.9652 15.5242 26.0933 14.704 22.0755C14.3483 20.3331 15.1481 17.6653 18.2518 15.8917H13.8179L5.78139 21.6005V28.9821L13.8535 26.3345C14.6571 27.3833 15.7038 28.3725 16.992 29.2681C17.0691 29.3218 17.1575 29.3474 17.2447 29.3474C17.385 29.3474 17.5231 29.2811 17.6093 29.1573C17.7489 28.9559 17.6993 28.6797 17.4982 28.5398C15.6012 27.2211 14.267 25.6892 13.5245 24.0661C13.4238 23.8459 13.5202 23.5847 13.7333 23.4696C13.9523 23.3513 14.218 23.4484 14.3265 23.6724C16.4245 28.0029 23.5864 31.3314 27.8561 32.7066C27.9013 32.7209 27.947 32.7279 27.992 32.7279C28.1795 32.7279 28.3536 32.6083 28.4139 32.4204C28.4892 32.1874 28.361 31.9376 28.128 31.8622Z" fill="#E29578"/>
<path d="M5.78139 21.6005V28.9821L11.722 27.0336C11.5271 26.5889 11.338 26.1277 11.1575 25.6465C8.49716 18.5521 15.5915 15.8917 15.5915 15.8917H13.8179L5.78139 21.6005Z" fill="#D68567"/>
<path d="M7.68428 20.8061C7.68428 20.8061 11.2663 14.5649 17.9397 14.5649C19.3973 14.5649 20.9131 15.2312 21.4388 15.6146C23.7943 17.3328 21.1941 20.0834 19.9515 18.2195C18.529 16.0857 15.9553 15.6073 13.4669 16.6122C10.5848 17.7762 8.97749 20.6213 8.97749 20.6213L7.68428 20.8061Z" fill="#E29578"/>
<path d="M6.98226 26.6441C4.80222 24.9444 5.72256 20.4362 9.82738 21.619C12.0074 22.2471 12.8573 20.4735 11.601 19.6606C10.9383 19.2318 9.46018 19.2362 7.81626 19.7665C6.10607 20.3181 4.95001 21.9183 4.95001 23.7151V29.637C4.95001 31.3512 6.33961 32.7408 8.05378 32.7408L6.98226 26.6441Z" fill="#FFD2C0"/>
<path d="M8.05378 32.7408L6.98226 26.6441C5.17345 25.2338 5.5013 21.8932 8.00924 21.4709L7.98916 21.4619C6.91758 21.582 4.95001 22.1824 4.95001 25.6464C4.95001 30.3298 8.05378 32.7408 8.05378 32.7408Z" fill="#F0CABB"/>
<path d="M12.3769 27.457C12.3769 27.457 17.7016 34.8102 32.4397 34.9556C32.6841 34.958 32.8839 35.1545 32.8839 35.3989C32.8839 35.645 32.6844 35.8445 32.4383 35.8445H14.483C12.4765 35.8445 9.75341 34.9578 8.05375 32.7408C6.63174 30.886 7.16698 27.42 7.16698 27.42L12.3769 27.457Z" fill="#E29578"/>
<path d="M32.4503 34.9578C30.0554 34.9578 24.7203 34.9578 19.1387 34.9578C15.536 34.9578 12.9591 33.7314 11.2999 32.1135C10.687 31.516 11.1339 30.4718 11.9898 30.4762L11.9981 30.4763C12.8164 30.4763 13.6026 29.935 13.972 29.0885C12.8729 28.1384 12.3769 27.457 12.3769 27.457L7.16695 27.4201C7.16695 27.4201 6.63171 30.886 8.05372 32.7408C9.75343 34.9578 12.4765 35.8446 14.4829 35.8446H32.4382C32.6843 35.8446 32.8838 35.6451 32.8838 35.3989C32.884 35.1582 32.6895 34.9659 32.4503 34.9578Z" fill="#D68567"/>
<path d="M6.31718 27.8265C5.68315 30.4444 8.05378 32.7408 8.05378 32.7408C8.05378 32.7408 6.78584 30.5355 7.74896 28.9443C8.38632 27.8912 9.68881 27.6695 11.1575 29.1937C12.2769 30.3552 13.8126 28.7108 13.1023 27.4668C13.7448 27.5852 14.4041 27.3545 14.483 26.755C14.7724 24.5552 7.4626 23.097 6.31718 27.8265Z" fill="#F0CABB"/>
<path d="M7.74895 28.9442C8.3863 27.8912 9.68879 27.6695 11.1575 29.1936C12.2769 30.3552 13.8126 28.7108 13.1023 27.4668C11.7857 25.6834 8.46943 25.4802 7.33323 27.42C6.15245 29.4361 7.16693 31.5584 8.05376 32.7408C8.05376 32.7408 6.78582 30.5354 7.74895 28.9442Z" fill="#E29578"/>
<path d="M30.5522 33.4262C30.5212 33.4262 30.4899 33.4232 30.4584 33.4163C30.2101 33.363 29.9514 33.302 29.6836 33.2344C29.4461 33.1747 29.3023 32.9335 29.3621 32.6962C29.4218 32.458 29.6641 32.3147 29.9005 32.3745C30.158 32.4394 30.4063 32.4979 30.6451 32.5494C30.8843 32.6009 31.0367 32.8365 30.9852 33.0759C30.9406 33.2842 30.7566 33.4262 30.5522 33.4262Z" fill="#E29578"/>
<path d="M19.2307 30.5425C19.1617 30.5425 19.0917 30.5264 19.0263 30.4923C18.8265 30.3883 18.6306 30.2818 18.4383 30.1736C18.2251 30.0532 18.1499 29.7826 18.2703 29.5695C18.3907 29.3561 18.6617 29.2807 18.8744 29.4011C19.058 29.505 19.2452 29.6064 19.436 29.7059C19.6531 29.8189 19.7376 30.087 19.6243 30.3039C19.5453 30.4559 19.3907 30.5425 19.2307 30.5425Z" fill="#E29578"/>
</g>
<path fill-rule="evenodd" clip-rule="evenodd" d="M26.5625 9.61909C26.626 9.61377 26.6902 9.61105 26.755 9.61105C28.0095 9.61105 29.0265 10.6279 29.0265 11.8822C29.0265 13.1365 28.0095 14.1533 26.755 14.1533C25.7145 14.1533 24.8374 13.4538 24.5684 12.4995C24.6104 14.0993 25.9206 15.3832 27.5308 15.3832C29.1675 15.3832 30.4943 14.0567 30.4943 12.4203C30.4943 10.7839 29.1675 9.45731 27.5308 9.45731C27.1917 9.45731 26.8659 9.51425 26.5625 9.61909Z" fill="#E29578"/>
<path d="M2.24999 19.05C2.24999 19.5 1.42499 20.325 1.04999 20.325C1.42499 20.325 2.24999 21 2.24999 21.6C2.24999 21 2.99999 20.325 3.44999 20.325C2.99999 20.325 2.24999 19.5 2.24999 19.05Z" fill="#E29578"/>
<path d="M38.25 19.0499C38.25 19.4999 37.425 20.3249 37.05 20.3249C37.425 20.3249 38.25 20.9999 38.25 21.5999C38.25 20.9999 39 20.3249 39.45 20.3249C39 20.3249 38.25 19.4999 38.25 19.0499Z" fill="#E29578"/>
<path d="M17.2021 3.69311L16.526 2.96461C16.4627 2.98015 16.3965 2.99243 16.3275 3.00145L15.6564 3.08919L15.76 3.88165L15.4959 3.91618L15.1692 1.41745L16.1044 1.29517C16.4233 1.25348 16.6831 1.29697 16.8839 1.42563C17.0847 1.55429 17.2025 1.75188 17.2373 2.01841C17.2628 2.21355 17.2345 2.38548 17.1523 2.53419C17.0721 2.68021 16.9443 2.79495 16.7689 2.8784L17.4913 3.65531L17.2021 3.69311ZM16.2909 2.7775C16.5384 2.74514 16.7205 2.66568 16.8371 2.5391C16.9536 2.41252 16.999 2.25047 16.9732 2.05295C16.9467 1.85067 16.8611 1.70454 16.7162 1.61456C16.571 1.52221 16.3746 1.49221 16.1271 1.52456L15.4632 1.61137L15.627 2.8643L16.2909 2.7775Z" fill="#E29578"/>
<path d="M18.4157 1.09116L18.6818 1.07784L18.8078 3.5947L18.5417 3.60801L18.4157 1.09116Z" fill="#E29578"/>
<path d="M20.9462 1.28267L20.0609 1.26053L20.0667 1.03021L22.1036 1.08114L22.0979 1.31147L21.2125 1.28933L21.1553 3.57821L20.889 3.57156L20.9462 1.28267Z" fill="#E29578"/>
<path d="M24.8262 3.22525L23.4331 3.05021L23.0491 3.68045L22.7741 3.64589L24.2313 1.28918L24.4921 1.32195L25.3209 3.96591L25.0423 3.9309L24.8262 3.22525ZM24.7567 2.99882L24.3253 1.58038L23.5565 2.84801L24.7567 2.99882Z" fill="#E29578"/>
<path d="M29.1848 37.4033C29.0025 37.4456 28.8204 37.457 28.6385 37.4375C28.4589 37.4175 28.3125 37.3702 28.1991 37.2955L28.2544 37.072C28.3639 37.1402 28.4987 37.1854 28.659 37.2073C28.8188 37.227 28.977 37.2187 29.1336 37.1824C29.3534 37.1314 29.509 37.0535 29.6005 36.9485C29.6914 36.8412 29.722 36.7233 29.6922 36.5947C29.6694 36.4965 29.6209 36.4252 29.5466 36.3808C29.4746 36.3359 29.3918 36.3083 29.2982 36.298C29.2041 36.2853 29.0756 36.2781 28.9126 36.2765C28.7171 36.2725 28.5595 36.2622 28.4399 36.2456C28.3197 36.2266 28.2095 36.1819 28.1095 36.1115C28.0117 36.0406 27.9452 35.9291 27.91 35.7771C27.8813 35.6532 27.888 35.5334 27.9302 35.4177C27.9718 35.2996 28.0534 35.1945 28.1749 35.1023C28.2964 35.0101 28.4577 34.9407 28.6588 34.8941C28.7991 34.8616 28.9404 34.8497 29.0829 34.8586C29.2272 34.8646 29.3563 34.8901 29.4702 34.9352L29.4305 35.1624C29.3119 35.1184 29.1904 35.0936 29.0659 35.088C28.9408 35.08 28.8222 35.089 28.71 35.115C28.4949 35.1649 28.3421 35.2446 28.2518 35.3542C28.1632 35.461 28.1341 35.5798 28.1644 35.7108C28.1872 35.809 28.2348 35.8817 28.3073 35.9289C28.3817 35.9733 28.4671 36.0016 28.5635 36.0137C28.6617 36.023 28.7912 36.0287 28.9518 36.0309C29.1421 36.0336 29.2974 36.0444 29.4176 36.0634C29.5395 36.0794 29.6494 36.123 29.7471 36.1939C29.8443 36.2626 29.9103 36.3717 29.945 36.5213C29.9737 36.6452 29.9661 36.7665 29.9221 36.8851C29.8799 37.0008 29.7969 37.105 29.6731 37.1978C29.5487 37.2882 29.3859 37.3567 29.1848 37.4033Z" fill="#E29578"/>
<path d="M26.141 38.4332C25.8937 38.4672 25.6615 38.4434 25.4444 38.3618C25.2293 38.2775 25.0515 38.147 24.9109 37.9701C24.7726 37.7928 24.687 37.5841 24.654 37.344C24.621 37.1039 24.6471 36.8798 24.7324 36.6719C24.82 36.4636 24.9562 36.291 25.1409 36.1542C25.3276 36.0147 25.5446 35.9279 25.7919 35.8939C26.0392 35.8599 26.269 35.884 26.4814 35.9663C26.6961 36.0482 26.874 36.1788 27.0149 36.358C27.1555 36.5349 27.2423 36.7435 27.2753 36.9836C27.3084 37.2237 27.2812 37.4491 27.1939 37.6598C27.1062 37.8681 26.9701 38.0406 26.7854 38.1775C26.6031 38.314 26.3883 38.3992 26.141 38.4332ZM26.1087 38.1978C26.306 38.1707 26.4783 38.1022 26.6255 37.9923C26.7724 37.8801 26.8802 37.7393 26.949 37.5699C27.0174 37.3982 27.0382 37.2148 27.0114 37.0199C26.9846 36.8249 26.9152 36.6552 26.8033 36.5107C26.6911 36.3638 26.5492 36.2573 26.3778 36.1913C26.2061 36.1228 26.0216 36.1022 25.8242 36.1293C25.6269 36.1564 25.4536 36.2263 25.3043 36.3389C25.1571 36.4487 25.0481 36.5897 24.9773 36.7617C24.9085 36.9311 24.8875 37.1132 24.9143 37.3082C24.9412 37.5032 25.0107 37.6741 25.1229 37.821C25.2372 37.9652 25.3803 38.0715 25.552 38.1399C25.7257 38.2057 25.9113 38.225 26.1087 38.1978ZM25.9629 35.2345L26.3017 35.1879L25.7847 35.7096L25.5351 35.7439L25.9629 35.2345Z" fill="#E29578"/>
<path d="M23.6425 39.0762L22.9829 38.3326C22.9193 38.3467 22.8529 38.3575 22.7837 38.365L22.1108 38.4375L22.1965 39.2321L21.9316 39.2607L21.6614 36.7552L22.5992 36.6541C22.9189 36.6196 23.1777 36.6689 23.3755 36.8021C23.5733 36.9353 23.6866 37.1355 23.7155 37.4027C23.7366 37.5984 23.7043 37.7696 23.6188 37.9164C23.5354 38.0606 23.405 38.1724 23.2277 38.2519L23.9324 39.0449L23.6425 39.0762ZM22.7522 38.1403C23.0003 38.1135 23.1841 38.0381 23.3035 37.9142C23.4229 37.7903 23.472 37.6293 23.4506 37.4313C23.4287 37.2285 23.3464 37.0804 23.2036 36.9872C23.0605 36.8916 22.8649 36.8572 22.6167 36.8839L21.951 36.9557L22.0864 38.212L22.7522 38.1403Z" fill="#E29578"/>
<path d="M20.7409 36.8175L20.4745 36.818L20.4794 39.338L20.7458 39.3374L20.7409 36.8175Z" fill="#E29578"/>
<path d="M18.9605 39.095L18.9364 39.3241L17.1641 39.1379L17.4275 36.6317L19.1461 36.8123L19.122 37.0414L17.6684 36.8887L17.5747 37.7801L18.8708 37.9164L18.8471 38.1419L17.551 38.0057L17.4532 38.9366L18.9605 39.095Z" fill="#E29578"/>
<path d="M15.0337 38.5936C15.3559 38.6456 15.622 38.5938 15.8319 38.4381C16.0419 38.2824 16.1753 38.028 16.2324 37.675L16.4626 36.2499L16.1996 36.2074L15.9711 37.6218C15.9244 37.9109 15.8244 38.116 15.6711 38.2371C15.5179 38.3582 15.318 38.3988 15.0716 38.359C14.8228 38.3188 14.6448 38.2171 14.5374 38.0539C14.4301 37.8907 14.3998 37.6646 14.4465 37.3755L14.675 35.9611L14.4191 35.9197L14.1889 37.3448C14.1318 37.6979 14.1784 37.9813 14.3286 38.1952C14.4765 38.4087 14.7115 38.5415 15.0337 38.5936Z" fill="#E29578"/>
<path d="M13.2117 37.8853C13.1158 37.9591 13.0109 38.0075 12.8972 38.0304C12.7853 38.0562 12.6697 38.0553 12.5505 38.0276C12.4055 37.994 12.276 37.9258 12.1619 37.823C12.0495 37.7231 11.9322 37.5702 11.8099 37.3645C11.5754 37.3027 11.3762 37.195 11.2123 37.0412C11.0484 36.8874 10.9343 36.7045 10.8701 36.4926C10.8059 36.2806 10.8006 36.0589 10.8543 35.8274C10.909 35.5913 11.0133 35.3912 11.1671 35.2273C11.3232 35.064 11.5119 34.9513 11.7332 34.8892C11.9574 34.8254 12.1911 34.8217 12.4343 34.8781C12.6774 34.9344 12.8836 35.0389 13.0527 35.1914C13.2241 35.3445 13.3438 35.5299 13.4116 35.7476C13.4799 35.963 13.4867 36.1887 13.432 36.4249C13.3843 36.6306 13.2971 36.81 13.1705 36.9629C13.0468 37.1141 12.8945 37.2291 12.7136 37.3079C12.5351 37.3872 12.3421 37.4226 12.1347 37.4139C12.2709 37.645 12.4266 37.7809 12.602 37.8215C12.7843 37.8638 12.9571 37.825 13.1204 37.7052L13.2117 37.8853ZM11.1103 35.8868C11.0659 36.0785 11.0702 36.2618 11.1233 36.4367C11.1787 36.6121 11.2744 36.7624 11.4105 36.8876C11.5489 37.0133 11.7151 37.0986 11.9091 37.1436C12.1032 37.1886 12.2888 37.1848 12.4661 37.1323C12.6433 37.0797 12.7942 36.9866 12.9189 36.8529C13.0435 36.7192 13.128 36.5564 13.1724 36.3647C13.2169 36.173 13.2126 35.9897 13.1595 35.8148C13.1064 35.6399 13.0118 35.4899 12.8758 35.3647C12.7397 35.2396 12.5747 35.1545 12.3806 35.1095C12.1866 35.0645 11.9997 35.068 11.8202 35.12C11.6429 35.1726 11.4908 35.2654 11.3639 35.3986C11.2393 35.5323 11.1547 35.695 11.1103 35.8868Z" fill="#E29578"/>
<defs>
<clipPath id="clip0">
<path d="M4.79999 12.6H35.55V20.85C35.55 29.1343 28.8343 35.85 20.55 35.85H19.8C11.5157 35.85 4.79999 29.1343 4.79999 20.85V12.6Z" fill="white"/>
</clipPath>
</defs>
</svg>
