<svg width="41" height="41" viewBox="0 0 41 41" fill="none" xmlns="http://www.w3.org/2000/svg">
<path d="M40.35 20.25C40.35 31.3509 31.3509 40.35 20.25 40.35C9.14908 40.35 0.15 31.3509 0.15 20.25C0.15 9.14908 9.14908 0.15 20.25 0.15C31.3509 0.15 40.35 9.14908 40.35 20.25Z" fill="#292C34" stroke="#F0CABB" stroke-width="0.3"/>
<path d="M35.85 20.25C35.85 28.8656 28.8656 35.85 20.25 35.85C11.6344 35.85 4.65 28.8656 4.65 20.25C4.65 11.6343 11.6344 4.64999 20.25 4.64999C28.8656 4.64999 35.85 11.6343 35.85 20.25Z" fill="#292C34" stroke="#F0CABB" stroke-width="0.3"/>
<g clip-path="url(#clip0)">
<path d="M15.6193 12.6774C11.1576 13.2316 4.95007 18.5524 4.95007 23.8732L21.0231 15.5318C21.0231 15.5318 20.5147 12.0693 15.6193 12.6774Z" fill="#F0CABB"/>
<path d="M32.8861 32.6143C32.8849 32.1853 32.5788 31.8164 32.1557 31.7453C24.8803 30.5236 14.2664 25.0933 16.5893 19.9932C17.4391 18.1272 19.8316 17.8594 19.8316 17.8594V15.8918H13.818L5.78149 21.6005V30.1913L20.9124 35.4012L32.8938 35.3989L32.8861 32.6143Z" fill="#F0CABB"/>
<path d="M28.1281 31.8622C22.2377 29.9652 15.5243 26.0933 14.7041 22.0755C14.3484 20.3331 15.1482 17.6653 18.252 15.8917H13.818L5.78149 21.6005V28.9821L13.8536 26.3345C14.6572 27.3833 15.7039 28.3725 16.9921 29.2681C17.0692 29.3218 17.1576 29.3474 17.2448 29.3474C17.3851 29.3474 17.5232 29.2811 17.6094 29.1573C17.749 28.9559 17.6994 28.6797 17.4983 28.5398C15.6013 27.2211 14.2671 25.6892 13.5246 24.0661C13.4239 23.8459 13.5203 23.5847 13.7334 23.4696C13.9524 23.3513 14.2181 23.4484 14.3266 23.6724C16.4246 28.0029 23.5865 31.3314 27.8562 32.7066C27.9014 32.7209 27.9471 32.7279 27.9921 32.7279C28.1796 32.7279 28.3537 32.6083 28.4141 32.4204C28.4893 32.1874 28.3611 31.9376 28.1281 31.8622Z" fill="#E29578"/>
<path d="M5.78149 21.6005V28.9821L11.7221 27.0336C11.5272 26.5889 11.3381 26.1277 11.1576 25.6465C8.49727 18.5521 15.5916 15.8917 15.5916 15.8917H13.818L5.78149 21.6005Z" fill="#D68567"/>
<path d="M7.68433 20.8061C7.68433 20.8061 11.2663 14.5649 17.9398 14.5649C19.3974 14.5649 20.9132 15.2312 21.4388 15.6146C23.7944 17.3328 21.1942 20.0834 19.9516 18.2195C18.529 16.0857 15.9554 15.6073 13.4669 16.6122C10.5848 17.7762 8.97754 20.6213 8.97754 20.6213L7.68433 20.8061Z" fill="#E29578"/>
<path d="M6.98232 26.6441C4.80228 24.9444 5.72262 20.4362 9.82744 21.619C12.0075 22.2471 12.8573 20.4735 11.601 19.6606C10.9383 19.2318 9.46025 19.2362 7.81632 19.7665C6.10613 20.3181 4.95007 21.9183 4.95007 23.7151V29.637C4.95007 31.3512 6.33967 32.7408 8.05384 32.7408L6.98232 26.6441Z" fill="#FFD2C0"/>
<path d="M8.05384 32.7408L6.98232 26.6441C5.17351 25.2338 5.50136 21.8932 8.0093 21.4709L7.98922 21.4619C6.91765 21.582 4.95007 22.1824 4.95007 25.6464C4.95007 30.3298 8.05384 32.7408 8.05384 32.7408Z" fill="#F0CABB"/>
<path d="M12.377 27.457C12.377 27.457 17.7017 34.8102 32.4398 34.9556C32.6842 34.958 32.884 35.1545 32.884 35.3989C32.884 35.645 32.6845 35.8445 32.4384 35.8445H14.4831C12.4767 35.8445 9.75351 34.9578 8.05386 32.7408C6.63185 30.886 7.16709 27.42 7.16709 27.42L12.377 27.457Z" fill="#E29578"/>
<path d="M32.4503 34.9578C30.0554 34.9578 24.7203 34.9578 19.1387 34.9578C15.536 34.9578 12.9592 33.7314 11.2999 32.1135C10.687 31.516 11.1339 30.4718 11.9898 30.4762L11.9981 30.4763C12.8164 30.4763 13.6026 29.935 13.9721 29.0885C12.8729 28.1384 12.3769 27.457 12.3769 27.457L7.16696 27.4201C7.16696 27.4201 6.63172 30.886 8.05374 32.7408C9.75345 34.9578 12.4765 35.8446 14.483 35.8446H32.4382C32.6843 35.8446 32.8839 35.6451 32.8839 35.3989C32.884 35.1582 32.6895 34.9659 32.4503 34.9578Z" fill="#D68567"/>
<path d="M6.31724 27.8265C5.68321 30.4444 8.05384 32.7408 8.05384 32.7408C8.05384 32.7408 6.7859 30.5355 7.74902 28.9443C8.38638 27.8912 9.68887 27.6695 11.1576 29.1937C12.277 30.3552 13.8126 28.7108 13.1024 27.4668C13.7449 27.5852 14.4042 27.3545 14.4831 26.755C14.7725 24.5552 7.46266 23.097 6.31724 27.8265Z" fill="#F0CABB"/>
<path d="M7.74907 28.9442C8.38643 27.8912 9.68892 27.6695 11.1577 29.1936C12.277 30.3552 13.8127 28.7108 13.1024 27.4668C11.7858 25.6834 8.46955 25.4802 7.33335 27.42C6.15257 29.4361 7.16706 31.5584 8.05389 32.7408C8.05389 32.7408 6.78594 30.5354 7.74907 28.9442Z" fill="#E29578"/>
<path d="M30.5523 33.4262C30.5213 33.4262 30.49 33.4232 30.4585 33.4163C30.2102 33.363 29.9515 33.302 29.6837 33.2344C29.4462 33.1747 29.3024 32.9335 29.3622 32.6962C29.4219 32.458 29.6642 32.3147 29.9006 32.3745C30.1581 32.4394 30.4064 32.4979 30.6452 32.5494C30.8844 32.6009 31.0368 32.8365 30.9853 33.0759C30.9407 33.2842 30.7567 33.4262 30.5523 33.4262Z" fill="#E29578"/>
<path d="M19.2308 30.5425C19.1618 30.5425 19.0918 30.5264 19.0264 30.4923C18.8266 30.3883 18.6307 30.2818 18.4384 30.1736C18.2252 30.0532 18.15 29.7826 18.2704 29.5695C18.3908 29.3561 18.6618 29.2807 18.8745 29.4011C19.0581 29.505 19.2453 29.6064 19.4361 29.7059C19.6532 29.8189 19.7377 30.087 19.6244 30.3039C19.5454 30.4559 19.3908 30.5425 19.2308 30.5425Z" fill="#E29578"/>
</g>
<path fill-rule="evenodd" clip-rule="evenodd" d="M26.5625 9.61909C26.6259 9.61377 26.6901 9.61105 26.755 9.61105C28.0095 9.61105 29.0265 10.6279 29.0265 11.8822C29.0265 13.1365 28.0095 14.1533 26.755 14.1533C25.7144 14.1533 24.8373 13.4538 24.5683 12.4995C24.6103 14.0993 25.9206 15.3832 27.5308 15.3832C29.1675 15.3832 30.4943 14.0567 30.4943 12.4203C30.4943 10.7839 29.1675 9.45731 27.5308 9.45731C27.1917 9.45731 26.8659 9.51425 26.5625 9.61909Z" fill="#F0CABB"/>
<path d="M2.25005 19.05C2.25005 19.5 1.42505 20.325 1.05005 20.325C1.42505 20.325 2.25005 21 2.25005 21.6C2.25005 21 3.00005 20.325 3.45005 20.325C3.00005 20.325 2.25005 19.5 2.25005 19.05Z" fill="#F0CABB"/>
<path d="M38.25 19.0499C38.25 19.4999 37.425 20.3249 37.05 20.3249C37.425 20.3249 38.25 20.9999 38.25 21.5999C38.25 20.9999 39 20.3249 39.45 20.3249C39 20.3249 38.25 19.4999 38.25 19.0499Z" fill="#F0CABB"/>
<path d="M17.2021 3.69311L16.5259 2.96461C16.4626 2.98015 16.3964 2.99243 16.3274 3.00145L15.6563 3.08919L15.7599 3.88165L15.4958 3.91618L15.1691 1.41745L16.1044 1.29517C16.4232 1.25348 16.6831 1.29697 16.8838 1.42563C17.0846 1.55429 17.2024 1.75188 17.2373 2.01841C17.2628 2.21355 17.2344 2.38548 17.1522 2.53419C17.0721 2.68021 16.9443 2.79495 16.7688 2.8784L17.4912 3.65531L17.2021 3.69311ZM16.2909 2.7775C16.5384 2.74514 16.7204 2.66568 16.837 2.5391C16.9536 2.41252 16.9989 2.25047 16.9731 2.05295C16.9467 1.85067 16.861 1.70454 16.7161 1.61456C16.5709 1.52221 16.3746 1.49221 16.1271 1.52456L15.4631 1.61137L15.6269 2.8643L16.2909 2.7775Z" fill="#F0CABB"/>
<path d="M18.4158 1.09116L18.6819 1.07784L18.8078 3.5947L18.5418 3.60801L18.4158 1.09116Z" fill="#F0CABB"/>
<path d="M20.9462 1.28267L20.0608 1.26053L20.0666 1.03021L22.1036 1.08114L22.0978 1.31147L21.2125 1.28933L21.1553 3.57821L20.8889 3.57156L20.9462 1.28267Z" fill="#F0CABB"/>
<path d="M24.8262 3.22525L23.4331 3.05021L23.0491 3.68045L22.7741 3.64589L24.2313 1.28918L24.4921 1.32195L25.3209 3.96591L25.0423 3.9309L24.8262 3.22525ZM24.7567 2.99882L24.3253 1.58038L23.5565 2.84801L24.7567 2.99882Z" fill="#F0CABB"/>
<path d="M29.1848 37.4033C29.0025 37.4456 28.8204 37.457 28.6385 37.4375C28.4589 37.4175 28.3125 37.3702 28.1991 37.2955L28.2544 37.072C28.3639 37.1402 28.4987 37.1854 28.659 37.2073C28.8188 37.227 28.977 37.2187 29.1336 37.1824C29.3534 37.1314 29.509 37.0535 29.6005 36.9485C29.6914 36.8412 29.722 36.7233 29.6922 36.5947C29.6694 36.4965 29.6209 36.4252 29.5466 36.3808C29.4746 36.3359 29.3918 36.3083 29.2982 36.298C29.2041 36.2853 29.0756 36.2781 28.9126 36.2765C28.7171 36.2725 28.5595 36.2622 28.4399 36.2456C28.3197 36.2266 28.2095 36.1819 28.1095 36.1115C28.0117 36.0406 27.9452 35.9291 27.91 35.7771C27.8813 35.6532 27.888 35.5334 27.9302 35.4177C27.9718 35.2996 28.0534 35.1945 28.1749 35.1023C28.2964 35.0101 28.4577 34.9407 28.6588 34.8941C28.7991 34.8616 28.9404 34.8497 29.0829 34.8586C29.2272 34.8646 29.3563 34.8901 29.4702 34.9352L29.4305 35.1624C29.3119 35.1184 29.1904 35.0936 29.0659 35.088C28.9408 35.08 28.8222 35.089 28.71 35.115C28.4949 35.1649 28.3421 35.2446 28.2518 35.3542C28.1632 35.461 28.1341 35.5798 28.1644 35.7108C28.1872 35.809 28.2348 35.8817 28.3073 35.9289C28.3817 35.9733 28.4671 36.0016 28.5635 36.0137C28.6617 36.023 28.7912 36.0287 28.9518 36.0309C29.1421 36.0336 29.2974 36.0444 29.4176 36.0634C29.5395 36.0794 29.6494 36.123 29.7471 36.1939C29.8443 36.2626 29.9103 36.3717 29.945 36.5213C29.9737 36.6452 29.9661 36.7665 29.9221 36.8851C29.8799 37.0008 29.7969 37.105 29.6731 37.1978C29.5487 37.2882 29.3859 37.3567 29.1848 37.4033Z" fill="#F0CABB"/>
<path d="M26.1409 38.4332C25.8936 38.4672 25.6614 38.4434 25.4443 38.3618C25.2292 38.2775 25.0514 38.147 24.9108 37.9701C24.7725 37.7928 24.6869 37.5841 24.6539 37.344C24.6209 37.1039 24.647 36.8798 24.7323 36.6719C24.8199 36.4636 24.9561 36.291 25.1408 36.1542C25.3275 36.0147 25.5445 35.9279 25.7918 35.8939C26.0391 35.8599 26.2689 35.884 26.4813 35.9663C26.696 36.0482 26.8739 36.1788 27.0148 36.358C27.1554 36.5349 27.2422 36.7435 27.2752 36.9836C27.3083 37.2237 27.2811 37.4491 27.1938 37.6598C27.1061 37.8681 26.97 38.0406 26.7853 38.1775C26.603 38.314 26.3882 38.3992 26.1409 38.4332ZM26.1086 38.1978C26.3059 38.1707 26.4782 38.1022 26.6254 37.9923C26.7723 37.8801 26.8801 37.7393 26.9489 37.5699C27.0173 37.3982 27.0381 37.2148 27.0113 37.0199C26.9845 36.8249 26.9152 36.6552 26.8032 36.5107C26.691 36.3638 26.5492 36.2573 26.3778 36.1913C26.206 36.1228 26.0215 36.1022 25.8242 36.1293C25.6268 36.1564 25.4535 36.2263 25.3043 36.3389C25.157 36.4487 25.048 36.5897 24.9772 36.7617C24.9084 36.9311 24.8874 37.1132 24.9143 37.3082C24.9411 37.5032 25.0106 37.6741 25.1228 37.821C25.2371 37.9652 25.3802 38.0715 25.5519 38.1399C25.7257 38.2057 25.9112 38.225 26.1086 38.1978ZM25.9628 35.2345L26.3016 35.1879L25.7846 35.7096L25.535 35.7439L25.9628 35.2345Z" fill="#F0CABB"/>
<path d="M23.6424 39.0762L22.9828 38.3326C22.9192 38.3467 22.8528 38.3575 22.7836 38.365L22.1107 38.4375L22.1964 39.2321L21.9315 39.2607L21.6613 36.7552L22.599 36.6541C22.9188 36.6196 23.1776 36.6689 23.3754 36.8021C23.5732 36.9353 23.6865 37.1355 23.7154 37.4027C23.7365 37.5984 23.7042 37.7696 23.6187 37.9164C23.5353 38.0606 23.4049 38.1724 23.2276 38.2519L23.9323 39.0449L23.6424 39.0762ZM22.7521 38.1403C23.0002 38.1135 23.184 38.0381 23.3034 37.9142C23.4228 37.7903 23.4718 37.6293 23.4505 37.4313C23.4286 37.2285 23.3463 37.0804 23.2034 36.9872C23.0604 36.8916 22.8648 36.8572 22.6166 36.8839L21.9509 36.9557L22.0863 38.212L22.7521 38.1403Z" fill="#F0CABB"/>
<path d="M20.7408 36.8175L20.4744 36.818L20.4794 39.338L20.7458 39.3374L20.7408 36.8175Z" fill="#F0CABB"/>
<path d="M18.9603 39.095L18.9363 39.3241L17.164 39.1379L17.4274 36.6317L19.146 36.8123L19.1219 37.0414L17.6683 36.8887L17.5746 37.7801L18.8707 37.9164L18.8469 38.1419L17.5509 38.0057L17.453 38.9366L18.9603 39.095Z" fill="#F0CABB"/>
<path d="M15.0337 38.5936C15.3559 38.6456 15.622 38.5938 15.8319 38.4381C16.0418 38.2824 16.1753 38.028 16.2324 37.675L16.4626 36.2499L16.1996 36.2074L15.9711 37.6218C15.9244 37.9109 15.8244 38.116 15.6711 38.2371C15.5178 38.3582 15.318 38.3988 15.0716 38.359C14.8228 38.3188 14.6448 38.2171 14.5374 38.0539C14.4301 37.8907 14.3998 37.6646 14.4465 37.3755L14.675 35.9611L14.4191 35.9197L14.1889 37.3448C14.1318 37.6979 14.1784 37.9813 14.3286 38.1952C14.4765 38.4087 14.7115 38.5415 15.0337 38.5936Z" fill="#F0CABB"/>
<path d="M13.2116 37.8853C13.1156 37.9591 13.0108 38.0075 12.8971 38.0304C12.7852 38.0562 12.6696 38.0553 12.5504 38.0276C12.4054 37.994 12.2759 37.9258 12.1617 37.823C12.0494 37.7231 11.9321 37.5702 11.8098 37.3645C11.5753 37.3027 11.376 37.195 11.2121 37.0412C11.0482 36.8874 10.9342 36.7045 10.87 36.4926C10.8058 36.2806 10.8005 36.0589 10.8542 35.8274C10.9089 35.5913 11.0132 35.3912 11.1669 35.2273C11.3231 35.064 11.5118 34.9513 11.7331 34.8892C11.9573 34.8254 12.191 34.8217 12.4341 34.8781C12.6773 34.9344 12.8834 35.0389 13.0526 35.1914C13.224 35.3445 13.3437 35.5299 13.4114 35.7476C13.4798 35.963 13.4866 36.1887 13.4318 36.4249C13.3841 36.6306 13.297 36.81 13.1704 36.9629C13.0467 37.1141 12.8944 37.2291 12.7135 37.3079C12.535 37.3872 12.342 37.4226 12.1346 37.4139C12.2707 37.645 12.4265 37.7809 12.6018 37.8215C12.7842 37.8638 12.957 37.825 13.1203 37.7052L13.2116 37.8853ZM11.1102 35.8868C11.0657 36.0785 11.0701 36.2618 11.1231 36.4367C11.1786 36.6121 11.2743 36.7624 11.4103 36.8876C11.5487 37.0133 11.715 37.0986 11.909 37.1436C12.1031 37.1886 12.2887 37.1848 12.466 37.1323C12.6432 37.0797 12.7941 36.9866 12.9187 36.8529C13.0433 36.7192 13.1279 36.5564 13.1723 36.3647C13.2167 36.173 13.2124 35.9897 13.1594 35.8148C13.1063 35.6399 13.0117 35.4899 12.8757 35.3647C12.7396 35.2396 12.5745 35.1545 12.3805 35.1095C12.1864 35.0645 11.9996 35.068 11.82 35.12C11.6428 35.1726 11.4907 35.2654 11.3638 35.3986C11.2391 35.5323 11.1546 35.695 11.1102 35.8868Z" fill="#F0CABB"/>
<defs>
<clipPath id="clip0">
<path d="M4.80005 12.6H35.55V20.85C35.55 29.1343 28.8343 35.85 20.55 35.85H19.8C11.5158 35.85 4.80005 29.1343 4.80005 20.85V12.6Z" fill="white"/>
</clipPath>
</defs>
</svg>
